<svg width="22" height="22" viewBox="0 0 22 22" fill="none" xmlns="http://www.w3.org/2000/svg">
<path d="M1 6.38583L10.7297 1L21 6.12936" stroke="#850C70" stroke-width="2" stroke-linecap="round" stroke-linejoin="round"/>
<path d="M6.6443 18.4846L4.99608 20.1242C4.76915 20.3499 4.50938 20.4004 4.21676 20.2757C3.92414 20.1509 3.77783 19.9281 3.77783 19.6074V8.50479C3.77783 8.11273 3.91817 7.7771 4.19884 7.4979C4.47952 7.2187 4.81693 7.0791 5.21107 7.0791H16.6769C17.0711 7.0791 17.4085 7.2187 17.6892 7.4979C17.9698 7.7771 18.1102 8.11273 18.1102 8.50479V17.0589C18.1102 17.451 17.9698 17.7866 17.6892 18.0658C17.4085 18.345 17.0711 18.4846 16.6769 18.4846H6.6443ZM7.36092 15.0251H12.4758C12.6789 15.0251 12.849 14.9568 12.9864 14.8201C13.1238 14.6835 13.1924 14.5142 13.1924 14.3122C13.1924 14.1103 13.1238 13.941 12.9864 13.8043C12.849 13.6677 12.6789 13.5994 12.4758 13.5994H7.36092C7.15788 13.5994 6.98768 13.6677 6.85033 13.8043C6.71298 13.941 6.6443 14.1103 6.6443 14.3122C6.6443 14.5142 6.71298 14.6835 6.85033 14.8201C6.98768 14.9568 7.15788 15.0251 7.36092 15.0251ZM7.36092 11.3562H14.5271C14.7301 11.3562 14.9003 11.2879 15.0377 11.1512C15.175 11.0146 15.2437 10.8453 15.2437 10.6433C15.2437 10.4414 15.175 10.2721 15.0377 10.1354C14.9003 9.9988 14.7301 9.93048 14.5271 9.93048H7.36092C7.15788 9.93048 6.98768 9.9988 6.85033 10.1354C6.71298 10.2721 6.6443 10.4414 6.6443 10.6433C6.6443 10.8453 6.71298 11.0146 6.85033 11.1512C6.98768 11.2879 7.15788 11.3562 7.36092 11.3562Z" fill="#850C70"/>
</svg>
